<?xml version="1.0" encoding="UTF-8" standalone="no"?>
<svg
   width="256"
   height="256"
   viewBox="0 0 256 256"
   version="1.1"
   preserveAspectRatio="xMidYMid"
   id="svg40"
   sodipodi:docname="cloudflare-seeklogo.svg"
   inkscape:version="1.4.4 (dcaf3e7d9e, 2026-05-05)"
   xmlns:inkscape="http://www.inkscape.org/namespaces/inkscape"
   xmlns:sodipodi="http://sodipodi.sourceforge.net/DTD/sodipodi-0.dtd"
   xmlns="http://www.w3.org/2000/svg"
   xmlns:svg="http://www.w3.org/2000/svg">
  <sodipodi:namedview
     id="namedview40"
     pagecolor="#ffffff"
     bordercolor="#000000"
     borderopacity="0.25"
     inkscape:showpageshadow="2"
     inkscape:pageopacity="0.0"
     inkscape:pagecheckerboard="0"
     inkscape:deskcolor="#d1d1d1"
     inkscape:zoom="2.0056458"
     inkscape:cx="27.921182"
     inkscape:cy="42.629662"
     inkscape:window-width="1920"
     inkscape:window-height="1080"
     inkscape:window-x="0"
     inkscape:window-y="0"
     inkscape:window-maximized="1"
     inkscape:current-layer="svg40" />
  <defs
     id="defs32">
    <radialGradient
       cx="0.54701239"
       cy="0.52771235"
       fx="0.54701239"
       fy="0.52771235"
       r="0.49978581"
       id="radialGradient-1">
      <stop
         stop-color="#FFFFFF"
         offset="0%"
         id="stop1" />
      <stop
         stop-color="#FCE800"
         offset="19.02%"
         id="stop2" />
      <stop
         stop-color="#EC8F27"
         offset="85.93%"
         id="stop3" />
    </radialGradient>
    <linearGradient
       x1="0.50033396"
       y1="0.40182042"
       x2="0.50033396"
       y2="-0.065296367"
       id="linearGradient-2">
      <stop
         stop-color="#F68B1F"
         offset="0%"
         id="stop4" />
      <stop
         stop-color="#FFFFFF"
         offset="100%"
         id="stop5" />
    </linearGradient>
    <linearGradient
       x1="0.23112905"
       y1="0.028364446"
       x2="0.49169135"
       y2="0.48674384"
       id="linearGradient-3">
      <stop
         stop-color="#FFFFFF"
         offset="0%"
         id="stop6" />
      <stop
         stop-color="#FEF6ED"
         offset="4.820809%"
         id="stop7" />
      <stop
         stop-color="#FBD0A5"
         offset="25.69%"
         id="stop8" />
      <stop
         stop-color="#F9B26B"
         offset="44.42%"
         id="stop9" />
      <stop
         stop-color="#F79D42"
         offset="60.34%"
         id="stop10" />
      <stop
         stop-color="#F69028"
         offset="72.82%"
         id="stop11" />
      <stop
         stop-color="#F68B1F"
         offset="80.33%"
         id="stop12" />
    </linearGradient>
    <linearGradient
       x1="-0.064413793"
       y1="-0.8745327"
       x2="0.83291072"
       y2="1.8714392"
       id="linearGradient-4">
      <stop
         stop-color="#FFFFFF"
         offset="0%"
         id="stop13" />
      <stop
         stop-color="#FEF6ED"
         offset="4.820809%"
         id="stop14" />
      <stop
         stop-color="#FBD0A5"
         offset="25.69%"
         id="stop15" />
      <stop
         stop-color="#F9B26B"
         offset="44.42%"
         id="stop16" />
      <stop
         stop-color="#F79D42"
         offset="60.34%"
         id="stop17" />
      <stop
         stop-color="#F69028"
         offset="72.82%"
         id="stop18" />
      <stop
         stop-color="#F68B1F"
         offset="80.33%"
         id="stop19" />
    </linearGradient>
    <linearGradient
       x1="0.67858243"
       y1="-0.043767504"
       x2="0.52765119"
       y2="0.6774286"
       id="linearGradient-5">
      <stop
         stop-color="#FFFFFF"
         offset="0%"
         id="stop20" />
      <stop
         stop-color="#FEF6ED"
         offset="4.820809%"
         id="stop21" />
      <stop
         stop-color="#FBD0A5"
         offset="25.69%"
         id="stop22" />
      <stop
         stop-color="#F9B26B"
         offset="44.42%"
         id="stop23" />
      <stop
         stop-color="#F79D42"
         offset="60.34%"
         id="stop24" />
      <stop
         stop-color="#F69028"
         offset="72.82%"
         id="stop25" />
      <stop
         stop-color="#F68B1F"
         offset="80.33%"
         id="stop26" />
    </linearGradient>
    <linearGradient
       x1="0.49993172"
       y1="0.0035441697"
       x2="0.49993172"
       y2="0.99773145"
       id="linearGradient-6">
      <stop
         stop-color="#F68B1F"
         offset="0%"
         id="stop27" />
      <stop
         stop-color="#CB672F"
         offset="53.08%"
         id="stop28" />
      <stop
         stop-color="#A1453F"
         offset="100%"
         id="stop29" />
    </linearGradient>
    <radialGradient
       cx="0.50374162"
       cy="0.6057108"
       fx="0.50374162"
       fy="0.6057108"
       r="0.51633543"
       id="radialGradient-7">
      <stop
         stop-color="#FFFFFF"
         offset="0%"
         id="stop30" />
      <stop
         stop-color="#FCE800"
         offset="13.34%"
         id="stop31" />
      <stop
         stop-color="#EC8F27"
         offset="85.93%"
         id="stop32" />
    </radialGradient>
    <radialGradient
       cx="202.91034"
       cy="65.021588"
       fx="202.91034"
       fy="65.021588"
       r="48.504206"
       id="radialGradient-1-3"
       gradientTransform="scale(1.0005153,0.99948493)"
       gradientUnits="userSpaceOnUse">
      <stop
         stop-color="#FFFFFF"
         offset="0%"
         id="stop1-6" />
      <stop
         stop-color="#FCE800"
         offset="19.02%"
         id="stop2-7" />
      <stop
         stop-color="#EC8F27"
         offset="85.93%"
         id="stop3-5" />
    </radialGradient>
    <linearGradient
       x1="134.77528"
       y1="49.381697"
       x2="134.77528"
       y2="0.56032716"
       id="linearGradient-2-3"
       gradientTransform="scale(1.0256763,0.97496651)"
       gradientUnits="userSpaceOnUse">
      <stop
         stop-color="#F68B1F"
         offset="0%"
         id="stop4-5" />
      <stop
         stop-color="#FFFFFF"
         offset="100%"
         id="stop5-6" />
    </linearGradient>
    <linearGradient
       x1="53.483841"
       y1="44.051598"
       x2="64.06267"
       y2="62.661801"
       id="linearGradient-3-2"
       gradientUnits="userSpaceOnUse">
      <stop
         stop-color="#FFFFFF"
         offset="0%"
         id="stop6-9" />
      <stop
         stop-color="#FEF6ED"
         offset="4.820809%"
         id="stop7-1" />
      <stop
         stop-color="#FBD0A5"
         offset="25.69%"
         id="stop8-2" />
      <stop
         stop-color="#F9B26B"
         offset="44.42%"
         id="stop9-7" />
      <stop
         stop-color="#F79D42"
         offset="60.34%"
         id="stop10-0" />
      <stop
         stop-color="#F69028"
         offset="72.82%"
         id="stop11-9" />
      <stop
         stop-color="#F68B1F"
         offset="80.33%"
         id="stop12-3" />
    </linearGradient>
    <linearGradient
       x1="2.0502184"
       y1="68.69608"
       x2="42.658292"
       y2="192.96398"
       id="linearGradient-4-6"
       gradientTransform="scale(1.409801,0.70931995)"
       gradientUnits="userSpaceOnUse">
      <stop
         stop-color="#FFFFFF"
         offset="0%"
         id="stop13-0" />
      <stop
         stop-color="#FEF6ED"
         offset="4.820809%"
         id="stop14-6" />
      <stop
         stop-color="#FBD0A5"
         offset="25.69%"
         id="stop15-2" />
      <stop
         stop-color="#F9B26B"
         offset="44.42%"
         id="stop16-6" />
      <stop
         stop-color="#F79D42"
         offset="60.34%"
         id="stop17-1" />
      <stop
         stop-color="#F69028"
         offset="72.82%"
         id="stop18-8" />
      <stop
         stop-color="#F68B1F"
         offset="80.33%"
         id="stop19-7" />
    </linearGradient>
    <linearGradient
       x1="180.28752"
       y1="90.573941"
       x2="173.40774"
       y2="123.44767"
       id="linearGradient-5-9"
       gradientTransform="scale(1.2768133,0.78319989)"
       gradientUnits="userSpaceOnUse">
      <stop
         stop-color="#FFFFFF"
         offset="0%"
         id="stop20-2" />
      <stop
         stop-color="#FEF6ED"
         offset="4.820809%"
         id="stop21-0" />
      <stop
         stop-color="#FBD0A5"
         offset="25.69%"
         id="stop22-2" />
      <stop
         stop-color="#F9B26B"
         offset="44.42%"
         id="stop23-3" />
      <stop
         stop-color="#F79D42"
         offset="60.34%"
         id="stop24-7" />
      <stop
         stop-color="#F69028"
         offset="72.82%"
         id="stop25-5" />
      <stop
         stop-color="#F68B1F"
         offset="80.33%"
         id="stop26-9" />
    </linearGradient>
    <linearGradient
       x1="43.737057"
       y1="243.13198"
       x2="43.737057"
       y2="325.84801"
       id="linearGradient-6-2"
       gradientTransform="scale(2.9399166,0.3401457)"
       gradientUnits="userSpaceOnUse">
      <stop
         stop-color="#F68B1F"
         offset="0%"
         id="stop27-2" />
      <stop
         stop-color="#CB672F"
         offset="53.08%"
         id="stop28-8" />
      <stop
         stop-color="#A1453F"
         offset="100%"
         id="stop29-9" />
    </linearGradient>
    <radialGradient
       cx="97.375316"
       cy="132.3803"
       fx="97.375316"
       fy="132.3803"
       r="38.978161"
       id="radialGradient-7-7"
       gradientTransform="scale(1.6664459,0.60007949)"
       gradientUnits="userSpaceOnUse">
      <stop
         stop-color="#FFFFFF"
         offset="0%"
         id="stop30-3" />
      <stop
         stop-color="#FCE800"
         offset="13.34%"
         id="stop31-6" />
      <stop
         stop-color="#EC8F27"
         offset="85.93%"
         id="stop32-1" />
    </radialGradient>
  </defs>
  <g
     id="g40"
     transform="translate(0,70)">
    <path
       d="m 199,33.9 5.8,-20.1 0.8,0.1 0.6,21.1 10.8,-17.9 1,0.5 -5.1,20.3 15.3,-14.5 0.8,0.7 -10.3,18.4 18.6,-9.9 0.6,0.7 -14.8,15.2 20.6,-4.7 0.4,0.8 -18.2,10.7 21.1,0.8 V 57 l -20.4,5.6 20.3,6 v 0.9 l -21.1,0.3 17.9,11.2 -0.5,0.9 -20.4,-5.1 14.4,15.2 -0.5,0.9 -18.2,-10.5 9.7,18.5 -0.9,0.7 -15,-14.7 5,20.3 -1,0.6 -10.7,-18.2 -0.3,20.9 -1.1,0.3 -5.8,-20.2 -6,20.2 -1.1,-0.3 V 89.6 l -0.6,-0.2 -11.6,17.5 5,-20.3 -15.3,14.4 -0.9,-0.7 10.5,-18.2 -18.8,9.7 -0.6,-0.7 14.8,-14.9 -20.6,4.5 -0.3,-0.8 18.3,-10.7 -20.9,-0.8 -0.4,-0.9 20.3,-5.7 -20,-5.9 0.1,-1 21,-0.3 -17.8,-10.8 0.1,-1 20.6,5.2 -14.6,-15.4 0.8,-0.8 18.4,10.1 -10,-18.3 0.6,-0.7 15.4,14.8 -5,-20.6 -0.2,-0.3 12.2,18.2 0.2,-21.2 h 1.2 z"
       fill="url(#radialGradient-1)"
       id="path32"
       style="fill:url(#radialGradient-1-3)" />
    <path
       d="m 256,101.9 c 0,-20.1 -16.3,-36.5 -36.5,-36.5 -8.1,0 -15.6,2.7 -21.7,7.2 0.8,-3.8 1.2,-7.8 1.2,-11.8 C 199,27.2 171.8,0 138.2,0 111.5,0 88.8,17.3 80.6,41.2 76,37.8 70.4,35.7 64.2,35.7 49.1,35.7 36.9,47.9 36.9,63 c 0,2.3 0.3,4.6 0.8,6.8 C 16.8,70.5 0,87.7 0,108.8 c 0,2.5 0.2,4.9 0.7,7.2 h 252.5 c 1.8,-4.4 2.8,-9.1 2.8,-14.1 z"
       fill="#f68b1f"
       id="path33" />
    <path
       d="m 191.8,60.8 c 0,29.6 -24.1,48.3 -53.7,48.3 -29.6,0 -53.5,-18.7 -53.5,-48.3 0,-29.6 24,-53.6 53.6,-53.6 29.6,0 53.6,24 53.6,53.6"
       fill="url(#linearGradient-2)"
       id="path34"
       style="fill:url(#linearGradient-2-3)" />
    <path
       d="m 183.6,61.1 c 0,18.1 -20.5,32.8 -45.7,32.8 -25.3,0 -45.7,-14.7 -45.7,-32.8 0,-18.1 20.5,-32.8 45.7,-32.8 25.3,0.1 45.7,14.7 45.7,32.8"
       fill="#f68b1f"
       id="path35" />
    <circle
       fill="url(#linearGradient-3)"
       cx="64.400002"
       cy="63.200001"
       r="20.299999"
       id="circle35"
       style="fill:url(#linearGradient-3-2)" />
    <path
       d="m 80.8,55.5 c 3.4,5.9 -0.9,14.9 -9.6,19.9 -8.7,5 -18.6,4.3 -22,-1.6 -3.4,-5.9 0.9,-14.9 9.6,-19.9 8.8,-5.1 18.6,-4.3 22,1.6"
       fill="#f68b1f"
       id="path36" />
    <path
       d="M 70.8,108.7 C 70.8,91.1 56.5,76.8 38.9,76.8 21.3,76.8 7,91.1 7,108.7 v 0.2 h 63.8 z"
       fill="url(#linearGradient-4)"
       id="path37"
       style="fill:url(#linearGradient-4-6)" />
    <path
       d="m 248.9,101.6 c 0,-16.1 -13,-29.1 -29.1,-29.1 -16.1,0 -29.1,13 -29.1,29.1 0,2.3 0.3,4.5 0.8,6.6 h 56.7 c 0.5,-2.2 0.7,-4.4 0.7,-6.6 z"
       fill="url(#linearGradient-5)"
       id="path38"
       style="fill:url(#linearGradient-5-9)" />
    <path
       d="m 250.2,109.2 -1.1,-2.2 -1.2,-2 -1.7,-2.6 -1.7,-2.2 -2,-2.5 -2.1,-2.2 -2.4,-2.3 -2.2,-1.9 -2.6,-1.8 -2.5,-1.5 -2.8,-1.6 -2.3,-1.2 -2.4,-1 -2.2,-0.6 -2.2,-0.4 -2.1,-0.4 -2.6,-0.2 -164.9,0.3 -2.6,0.1 -2.7,0.2 -2.9,0.3 -2.4,0.5 -3.1,0.7 -2.1,0.7 -2.3,0.9 -2.3,0.8 -2.9,1.5 -2.1,1 -2.8,1.8 -2.5,2 -2.7,2.1 -2.3,2.3 -1.8,2.2 -1.9,2.5 -1.4,2.5 -1.1,2.2 -0.6,2 -0.4,1.7 h 244.6 z"
       fill="url(#linearGradient-6)"
       id="path39"
       style="fill:url(#linearGradient-6-2)" />
    <path
       d="m 202.6,67.8 22.1,28.9 -0.8,0.6 L 198.1,74.1 99,92.1 98.9,91.2 191,70 140.3,52.8 140.9,52 Z"
       fill="url(#radialGradient-7)"
       id="path40"
       style="fill:url(#radialGradient-7-7)" />
  </g>
</svg>
